PathFileType	4	(X/Y/Z)	/Users/mathieubourgeois/Desktop/Analyse/Traitement/Sujet_07/Data/Transformed_Sujet_07_velo_80.trc
DataRate	CameraRate	NumFrames	NumMarkers	Units	OrigDataRate	OrigDataStartFrame	OrigNumFrames
120.000000	120.000000	6	36	mm	120.000000	700	1868
Frame#	Time	RFHD			LFHD			RBHD			LBHD			C7			CLAV			RSHO			LSHO			STRN			T10			RBWT			LBWT			RFWT			LFWT			RKNI			LKNI			RKNE			LKNE			LANI			RANI			LANE			RANE			LTOE			RTOE			LHEE			RHEE			RHUM			LHUM			RRAD			LRAD			RWRA			RWRB			LWRA			LWRB			LCAR			RCAR			
		X1	Y1	Z1	X2	Y2	Z2	X3	Y3	Z3	X4	Y4	Z4	X5	Y5	Z5	X6	Y6	Z6	X7	Y7	Z7	X8	Y8	Z8	X9	Y9	Z9	X10	Y10	Z10	X11	Y11	Z11	X12	Y12	Z12	X13	Y13	Z13	X14	Y14	Z14	X15	Y15	Z15	X16	Y16	Z16	X17	Y17	Z17	X18	Y18	Z18	X19	Y19	Z19	X20	Y20	Z20	X21	Y21	Z21	X22	Y22	Z22	X23	Y23	Z23	X24	Y24	Z24	X25	Y25	Z25	X26	Y26	Z26	X27	Y27	Z27	X28	Y28	Z28	X29	Y29	Z29	X30	Y30	Z30	X31	Y31	Z31	X32	Y32	Z32	X33	Y33	Z33	X34	Y34	Z34	X35	Y35	Z35	X36	Y36	Z36	

701	5.833333333333333	266.01123046875	1363.838256835938	160.4326934814453	280.2687072753906	1344.73681640625	29.02301216125484	207.5932464599609	1504.173828125	151.3888702392578	219.014404296875	1499.07080078125	5.633964061736996	61.14019393920898	1486.53369140625	59.58368301391593	38.83095169067382	1351.939819335938	66.79569244384757	72.25569915771482	1426.999389648438	207.965591430664	94.95178985595705	1454.143798828125	-66.5800857543946	-127.2418594360352	1285.449462890625	50.79026412963858	-186.0506286621094	1513.14013671875	53.70994949340809	-427.6464233398438	1295.46240234375	127.3395996093749	-441.8601379394531	1300.268676757812	14.30483627319323	-271.1412658691406	1209.325073242188	154.3847198486327	-292.4677429199219	1223.556030273438	-56.51408004760754	-135.287338256836	691.766845703125	117.8492736816406	-50.97882461547851	865.9672241210938	-50.3635978698731	-154.3178100585938	753.0317993164062	220.1193695068359	-35.6531295776367	907.5357666015625	-158.5110626220704	-319.5987243652344	603.09521484375	-41.43367385864266	-136.3349761962891	307.0695190429688	129.2127990722656	-343.80810546875	601.3069458007812	-129.1978149414063	-168.0840301513672	294.7430419921875	213.1647949218749	-193.2864837646484	456.4847412109375	-102.9179840087891	23.36706924438474	182.8746185302734	194.7679595947266	-401.4897155761719	619.5267333984375	-88.46713256835946	-220.0407409667969	282.6581115722656	166.2537994384765	73.08741760253903	1093.334716796875	249.9332733154296	97.27507781982423	1122.290893554688	-146.2797241210938	118.3649978637695	1119.82080078125	294.5680236816406	159.8896484375	1139.085815429688	-162.8222961425782	320.7913208007812	935.7596435546875	253.3380126953125	282.5992736816406	899.0490112304688	308.3422241210938	317.4166870117188	930.8306884765625	-103.2953796386719	277.5730590820312	887.9722290039062	-154.2218017578125	372.2336120605469	915.1470947265625	-192.6779632568359	372.4507446289062	924.7434692382812	342.1154479980469	
702	5.841666666666667	266.4696350097656	1363.733764648438	159.7815704345703	280.6202087402344	1344.475341796875	29.03342628478999	208.7751159667968	1504.12255859375	150.1006927490234	219.7433013916016	1498.86376953125	4.848014354705746	61.55455780029296	1486.809936523438	59.41787719726554	39.47311782836913	1352.014038085938	66.03159332275382	73.02116394042966	1427.103515625	207.0366058349609	95.2983856201172	1454.299560546875	-67.4154129028321	-126.6098403930664	1285.592163085938	49.66402816772452	-185.5198516845703	1513.260498046875	53.67061614990223	-426.761474609375	1295.350708007812	128.1486053466795	-441.428955078125	1300.585327148438	15.13535594940172	-270.5193786621094	1208.81298828125	154.3887634277343	-292.4790954589844	1224.204467773438	-55.96570968627941	-144.2017822265625	685.9802856445312	116.8798217773437	-46.31361007690429	873.8553466796875	-50.74154663085944	-161.3927307128907	747.8178100585938	219.1812286376952	-31.66047286987303	915.4943237304688	-159.0243225097657	-312.7477722167969	609.0381469726562	-40.59776687622077	-144.5157318115235	301.6402587890625	129.2737884521484	-337.0530090332031	606.778076171875	-128.3646697998047	-176.4860534667969	289.46142578125	213.2241058349609	-182.5049133300781	464.9071960449219	-101.5446777343751	13.62428760528562	175.4826202392578	194.4416656494141	-395.2620849609375	623.7761840820312	-87.13912200927743	-228.4327697753907	278.0494689941406	166.3233032226562	73.28292846679685	1093.480834960938	249.8066253662109	97.47608184814455	1122.335571289062	-146.763656616211	118.6371765136718	1119.981689453125	294.4056091308593	160.0866088867188	1139.083740234375	-163.2239532470703	320.8620300292968	935.7033081054688	253.3521118164062	282.6337585449218	899.03271484375	308.3882141113281	317.4833068847656	930.8421630859375	-103.2566528320313	277.6408081054688	887.9376831054688	-154.1978149414063	372.3316650390625	915.10302734375	-192.5967407226562	372.4666137695312	924.6914672851562	342.1984252929688	
703	5.85	266.9417114257812	1363.664428710938	159.1863403320312	281.1174011230469	1344.254638671875	28.48426818847652	209.4600982666015	1504.097534179688	149.3456420898437	220.463623046875	1498.673828125	4.126445293426449	62.17317581176757	1486.901611328125	58.62911605834952	40.02504348754882	1352.080810546875	65.28573608398429	73.81681823730466	1427.243774414062	206.193389892578	95.6975555419922	1454.4267578125	-68.21598052978523	-126.0226516723633	1285.616577148438	49.33966827392569	-184.9579162597656	1513.2294921875	53.61386108398426	-425.9713134765625	1295.253173828125	128.931182861328	-440.9613342285156	1300.949340820312	15.97488212585436	-269.9496459960938	1208.257080078125	154.493438720703	-292.2934875488281	1224.58447265625	-55.75317764282238	-152.4382781982422	680.9238891601562	115.808364868164	-40.47163772583007	882.558349609375	-50.33882141113288	-167.9027404785157	743.2622680664062	218.289810180664	-28.09644699096678	923.1747436523438	-159.5179290771485	-305.6521911621094	614.0994262695312	-39.83246231079109	-153.570541381836	296.815673828125	129.3325653076171	-330.0679626464844	611.35498046875	-127.5493469238282	-185.3835601806641	284.8507080078125	213.3628540039062	-172.8176116943359	472.5835571289062	-100.8515853881836	3.37475204467771	169.1754760742188	194.0750732421875	-388.4475708007812	627.7605590820312	-86.70046997070321	-237.4892272949219	274.1629943847656	166.6915893554687	73.41685485839841	1093.609497070312	249.7173919677734	97.6354217529297	1122.372924804688	-147.1576385498047	118.8152694702148	1120.116455078125	294.2809143066406	160.2479858398438	1139.060302734375	-163.7066497802735	320.8790588378906	935.6924438476562	253.4283752441406	282.6214294433593	899.0223999023438	308.4582214355469	317.5224609375	930.837158203125	-103.229118347168	277.7230834960938	887.9091796875	-154.1502838134766	372.3971252441406	915.052978515625	-192.5431671142578	372.4655151367187	924.6679077148438	342.2555847167969	
704	5.858333333333333	267.42822265625	1363.628173828125	158.6691284179687	281.6738891601562	1344.048583984375	27.97850036621089	210.1163787841797	1504.10400390625	148.6459808349609	221.1716461181641	1498.502563476562	3.43358182907098	62.83734893798827	1486.89990234375	57.78089141845695	40.50743103027343	1352.10107421875	64.56929016113273	74.5481033325195	1427.36181640625	205.3980102539062	96.08174896240236	1454.553955078125	-68.99257659912116	-125.4761199951172	1285.591430664062	49.12214660644522	-184.3694152832031	1513.136352539062	53.53056335449207	-425.2832641601562	1295.169921875	129.6080169677733	-440.5567016601562	1301.334838867188	16.72676467895495	-269.5040588378906	1207.71044921875	154.6152191162108	-292.1110229492188	1224.951904296875	-55.4999351501466	-159.9978332519531	676.5604858398438	114.8223342895507	-37.89832687377929	888.69775390625	-51.39050292968756	-173.806381225586	739.3179931640625	217.4046630859374	-24.81512832641599	930.5267944335938	-159.9210052490235	-298.3484191894531	618.301513671875	-39.12644577026374	-163.0008087158203	292.6258850097656	129.364517211914	-322.8131713867188	614.9833374023438	-126.8067932128907	-194.6771240234375	280.9451293945312	213.5586700439453	-162.791259765625	479.5605773925781	-100.3043823242188	-6.99298191070559	163.5753326416016	193.2590789794922	-381.5334777832031	630.3445434570312	-85.88132476806649	-247.0001220703125	270.9720764160156	167.1359252929687	73.49094390869138	1093.721435546875	249.6620330810546	97.74227905273439	1122.409301757812	-147.5801239013672	118.9372787475586	1120.259643554688	294.2106323242187	160.3728179931641	1139.049072265625	-164.2420349121094	320.8345336914062	935.674072265625	253.4817962646484	282.5774230957031	898.9989624023438	308.4826965332031	317.5549621582031	930.8285522460938	-103.2364654541016	277.7762145996094	887.8565673828125	-154.1357879638672	372.4620056152344	914.99853515625	-192.5176849365234	372.4179992675781	924.6360473632812	342.289306640625	
705	5.866666666666666	267.9230041503906	1363.602294921875	158.2068481445312	282.240478515625	1343.890869140625	27.54887008666988	210.2657012939453	1504.130859375	148.419692993164	221.8567657470703	1498.340698242188	2.800244808196957	63.67602539062499	1486.577514648438	56.40992355346671	41.09852600097656	1352.116088867188	63.93885803222648	75.25949859619138	1427.4599609375	204.613311767578	96.45104980468751	1454.65966796875	-69.69548797607429	-124.9439239501953	1285.45703125	49.75188827514639	-183.8017120361328	1513.010009765625	53.51926040649403	-424.7425231933594	1295.129272460938	130.2449798583983	-440.1817016601562	1301.760375976562	17.37901115417467	-269.17236328125	1207.15771484375	154.7255859374999	-291.9125671386719	1225.257934570312	-55.29011154174816	-168.0217437744141	672.9618530273438	114.4089889526367	-34.20648193359374	895.3179321289062	-51.640121459961	-179.0810089111328	735.9592895507812	216.5650482177734	-21.81440353393553	937.439697265625	-160.1703033447266	-290.8658447265625	621.5975341796875	-38.46960067749031	-172.7518920898438	289.0682067871094	129.3107757568359	-315.419677734375	617.7500610351562	-126.1587066650391	-204.1724243164063	277.7823486328125	213.6758422851562	-152.413330078125	485.9590454101562	-99.79314422607426	-17.97569274902346	158.6893463134766	192.6228485107422	-374.4067077636719	631.9220581054688	-85.15663146972665	-256.7530517578125	268.4320983886719	167.5420989990234	73.51725769042966	1093.853759765625	249.6367645263671	97.81283569335939	1122.42138671875	-148.0423583984376	119.0036315917968	1120.384155273438	294.1338500976562	160.4622955322266	1138.965454101562	-164.6610565185547	320.7858886718749	935.665771484375	253.4864654541015	282.4999999999999	898.9791259765625	308.4782104492188	317.5838623046875	930.8090209960938	-103.2657012939453	277.8272094726562	887.8109130859375	-154.1601715087891	372.5090026855469	914.958740234375	-192.5306091308594	372.3702087402343	924.602783203125	342.2859802246094	
706	5.875	268.4367065429688	1363.621337890625	157.7965545654296	282.78564453125	1343.746826171875	27.19681358337398	210.8370056152343	1504.15869140625	147.8392486572265	222.5254211425781	1498.201538085938	2.168988466262753	64.257568359375	1486.4970703125	55.7902069091796	41.65295028686523	1352.086303710938	63.37280273437492	75.95577239990232	1427.562377929688	203.8842010498046	96.84691619873048	1454.703979492188	-70.35385894775398	-124.3706512451172	1285.3603515625	49.53110122680655	-183.2466583251953	1512.873901367188	53.49339675903309	-424.2894897460938	1295.136108398438	130.7811889648436	-439.8492736816406	1302.233764648438	17.94472503662096	-268.8973693847656	1206.660522460938	154.8794860839843	-291.7258911132812	1225.600463867188	-55.06427764892589	-174.3796539306641	670.0782470703125	113.7083129882812	-30.8307991027832	901.4815063476562	-51.81515121459967	-183.7757568359375	733.1710815429688	215.7510223388671	-19.23427200317381	943.901611328125	-160.3283843994141	-283.2333374023438	624.0203857421875	-37.91513824462898	-182.5519256591797	286.0675659179688	129.1984252929687	-307.8377380371094	619.628173828125	-125.5537490844727	-213.7997283935547	275.2441101074219	213.7069702148437	-141.7621765136719	491.7967529296875	-99.38296508789067	-28.71145439147952	154.1284790039062	191.4968872070312	-367.1676330566406	632.4671630859375	-84.49546051025399	-266.6907653808594	266.5975952148438	167.8655090332031	73.54489898681638	1094.00927734375	249.6160736083984	97.85284423828126	1122.409301757812	-148.5186614990235	119.0586700439453	1120.513671875	294.0440368652343	160.5257568359375	1138.933471679688	-165.1983184814453	320.7124328613281	935.6488647460938	253.4620971679687	282.4263305664062	898.9381713867188	308.4424743652344	317.6009826660156	930.7883911132812	-103.3577499389649	277.8433532714844	887.7387084960938	-154.2040710449219	372.5391845703125	914.8994750976562	-192.5832061767578	372.3400878906249	924.5725708007812	342.2405090332031	
